<svg width="38" height="38" viewBox="0 0 38 38" fill="none" xmlns="http://www.w3.org/2000/svg">
<rect width="38" height="38" rx="4" fill="#192633"/>
<rect x="0.5" y="0.5" width="37" height="37" rx="3.5" stroke="black" stroke-opacity="0.21"/>
<path fill-rule="evenodd" clip-rule="evenodd" d="M19.7303 9C23.1226 9 25.5831 10.0903 27 11.8839L23.2343 15.2597C22.9365 14.7674 21.8551 13.3607 19.7303 13.3607C17.3067 13.3607 15.7411 14.7674 15.7411 19.0932C15.7411 23.313 17.046 25.2824 19.6926 25.2824C21.5567 25.2824 22.7501 24.2271 23.2719 23.3482L26.8506 26.4781C25.6578 27.9902 23.6447 29.6429 19.1708 29.6429C13.467 29.6429 10 26.6891 10 19.515C10 12.5168 14.0262 9 19.7303 9Z" fill="#DAC561"/>
</svg>
