<svg width="15" height="10" viewBox="0 0 15 10" fill="none" xmlns="http://www.w3.org/2000/svg">
<rect x="5.47162" y="1.46094" width="4.05598" height="7.07477" fill="#FF5F00"/>
<path d="M5.72919 5.00022C5.72807 3.61988 6.38093 2.3157 7.49966 1.46345C5.59912 0.0137627 2.86986 0.224923 1.22994 1.94854C-0.40998 3.67215 -0.40998 6.32953 1.22994 8.05315C2.86986 9.77676 5.59912 9.98792 7.49966 8.53823C6.38058 7.68571 5.72768 6.38099 5.72919 5.00022Z" fill="#EB001B"/>
<path d="M15 5.00024C14.9999 6.72281 13.9865 8.29414 12.3902 9.04689C10.7939 9.79963 8.89484 9.60164 7.49963 8.53701C8.61787 7.68404 9.27078 6.38003 9.27078 4.99962C9.27078 3.61921 8.61787 2.3152 7.49963 1.46223C8.89502 0.397453 10.7943 0.199562 12.3908 0.952624C13.9872 1.70569 15.0004 3.27745 15 5.00024Z" fill="#F79E1B"/>
<path fill-rule="evenodd" clip-rule="evenodd" d="M14.8519 7.61096V7.92118L14.8184 7.9234V7.68852L14.7682 7.89016H14.7334L14.6832 7.68852V7.92118H14.6562V7.61096H14.7038L14.7579 7.83255L14.812 7.61096H14.8519ZM14.5545 7.66418V7.92122L14.5249 7.92344V7.6664H14.4644V7.61322H14.615V7.66418H14.5545Z" fill="#F79E1B"/>
</svg>
